# xmcd
#
# Track frame offsets: 
#        150
#        14103
#        23670
#        36290
#        50034
#        66006
#        80384
#        94803
#        106978
#        117893
#        133116
#        144406
#        155462
#        171736
#        183388
#        210759
#
# Disc length: 2961 seconds
#
# Revision: 0
# Processed by: cddbd v1.5.2PL0 Copyright (c) Steve Scherf et al.
# Submitted via: ExactAudioCopy v0.95b4
#
DISCID=dd0b8f10
DTITLE=Various Artist - The 60's - Hits Of 1965
DYEAR=2006
DGENRE=Rock and Roll
TTITLE0=Beach Boys - Help Me, Rhonda
TTITLE1=James Brown - Papa's Got A Brand New Bag Pt. I
TTITLE2=Shirley Bassey - Goldfinger
TTITLE3=McCoys - Hang On Sloopy
TTITLE4=Barry Mc Guire - Eve Of Destruction
TTITLE5=Sonny and Cher - I Got You Babe
TTITLE6=Moody Blues - Go Now!
TTITLE7=Temptations - My Girl
TTITLE8=Eric Burdon and The Animals - Don't Let Me Be Misunderstood
TTITLE9=Joan Baez - It's All Over Now, Baby Blue
TTITLE10=Kinks - Tired Of Waiting For You
TTITLE11=Roger Miller - King Of The Road
TTITLE12=Righteous Brothers - Unchained Melody
TTITLE13=Nina Simone - I Put A Spell On You
TTITLE14=Bob Dylan - Like A Rolling Stone
TTITLE15=Wilson Pickett - In The Midnight Hour
EXTD=
EXTT0=
EXTT1=
EXTT2=
EXTT3=
EXTT4=
EXTT5=
EXTT6=
EXTT7=
EXTT8=
EXTT9=
EXTT10=
EXTT11=
EXTT12=
EXTT13=
EXTT14=
EXTT15=
PLAYORDER=
